<svg width="940" height="170" viewBox="0 0 940 170" fill="none" xmlns="http://www.w3.org/2000/svg" role="img" aria-label="QA and development toolkit">
  <defs>
    <linearGradient id="accent" x1="42" y1="36" x2="898" y2="134" gradientUnits="userSpaceOnUse">
      <stop stop-color="#38BDF8"/>
      <stop offset=".5" stop-color="#A78BFA"/>
      <stop offset="1" stop-color="#34D399"/>
    </linearGradient>
  </defs>
  <rect x="1" y="1" width="938" height="168" rx="22" fill="#0B1020" stroke="#273244"/>
  <text x="36" y="44" fill="#F8FAFC" font-size="22" font-weight="800" font-family="Inter, ui-sans-serif, system-ui">Toolkit</text>
  <text x="36" y="74" fill="#94A3B8" font-size="14" font-family="Inter, ui-sans-serif, system-ui">Practical tools for finding issues, validating behavior, and communicating clearly.</text>
  <g font-family="Inter, ui-sans-serif, system-ui" font-size="14" font-weight="740">
    <rect x="36" y="104" width="108" height="34" rx="17" fill="#111827" stroke="#334155"/><text x="58" y="126" fill="#E2E8F0">Postman</text>
    <rect x="156" y="104" width="72" height="34" rx="17" fill="#111827" stroke="#334155"/><text x="180" y="126" fill="#E2E8F0">Jira</text>
    <rect x="240" y="104" width="66" height="34" rx="17" fill="#111827" stroke="#334155"/><text x="264" y="126" fill="#E2E8F0">Git</text>
    <rect x="318" y="104" width="74" height="34" rx="17" fill="#111827" stroke="#334155"/><text x="344" y="126" fill="#E2E8F0">SQL</text>
    <rect x="404" y="104" width="112" height="34" rx="17" fill="#111827" stroke="#334155"/><text x="427" y="126" fill="#E2E8F0">DevTools</text>
    <rect x="528" y="104" width="112" height="34" rx="17" fill="#111827" stroke="#334155"/><text x="550" y="126" fill="#E2E8F0">JavaScript</text>
    <rect x="652" y="104" width="82" height="34" rx="17" fill="#111827" stroke="#334155"/><text x="679" y="126" fill="#E2E8F0">React</text>
    <rect x="746" y="104" width="128" height="34" rx="17" fill="#111827" stroke="#334155"/><text x="768" y="126" fill="#E2E8F0">Playwright</text>
  </g>
  <rect x="36" y="88" width="868" height="2" rx="1" fill="url(#accent)" opacity=".55"/>
</svg>
